<svg xmlns="http://www.w3.org/2000/svg" xmlns:xlink="http://www.w3.org/1999/xlink" version="1.1" x="0px" y="0px" viewBox="0 0 686 532.5" enable-background="new 0 0 686 426" xml:space="preserve"><g><g><circle cx="143.197" cy="286.312" r="7.385"/><path d="M541.886,157.489c-21.279,0-41.359,5.16-59.04,14.3l-15.779-40.29v-0.01c20.319-37.01,24.97-66.46,13.8-87.57    c-9.76-18.46-29.54-25.81-41.15-28.62c-3.72-1.15-8.229-1.99-13.72-2.27c-4.58,0-8.771,2.86-11.21,4.89l-35.29,1.02    c0,0-3.67,8.57,0,13.67c5.51,0,37.32-2.04,37.32-2.04s2.67,2.65,8.569,2.65c5.21,0,7.141-3.47,7.141-4.89    c4.279,0.61,15.5,0.2,15.5,0.2s2.649,6.32,0.399,8.97c-1.63,1.63-22.43,20.8-22.43,20.8s15.03,44.91,15.49,45.74l-176.03,50.25    l-2.65-5.35c0,0-5.01-11.12-10.05-22.24c-5.05-11.13-10.13-22.25-10.28-22.25c25.65-3.11,33.511-3.95,43.53-13.51    c-6.46-9.99-22.02-10.28-34.5-8.81c-22.17,2.05-53.6,0.88-59.52,3.81c-7.391,4.41-2.84,13.81-2.84,13.81s1.899,5.45,8.55,6.44    c7.52,1.12,29.25,0.17,34.83-0.13l18.58,46.56h-0.021l0.17,0.4l0.04,0.09l0.21,0.51l3.82,9.17l-26.93,26.9    c-22.711-20.04-52.54-32.2-85.19-32.2c-71.16,0-128.83,57.68-128.83,128.82s57.67,128.82,128.83,128.82    c56.28,0,104.15-36.12,121.68-86.44c0,0,0,0,0.011,0l46.67,10.97l0.029,0.01c2.67,0.83,5.511,1.28,8.46,1.28    c15.7,0,28.431-12.73,28.431-28.44c0-7.52-2.92-14.37-7.7-19.45l121.21-135.57c0,0,4.189,9.08,9.59,20.86    c-35.229,22.99-58.51,62.76-58.51,107.96c0,71.14,57.67,128.82,128.81,128.82c71.16,0,128.82-57.68,128.82-128.82    S613.046,157.489,541.886,157.489z M256.996,274.379c-0.21,0.04-0.36,0.2-0.41,0.39l-19.2,4l-50.46-3.24l13.78-7.89l53.75-6.24    c0.12,0.14,0.3,0.24,0.5,0.22l1.47-0.15c0.9,4.12,1.59,8.32,2.04,12.59L256.996,274.379z M258.576,275.189    c0.16,1.65,0.28,3.3,0.37,4.97l-19.66-1.27l17.39-3.62c0.13,0.17,0.351,0.26,0.58,0.21L258.576,275.189z M176.186,241.839    l-17.64,17.63l0.42-3.86l18.82-17.32L176.186,241.839z M178.736,237.409l24.04-22.12l-25.57,25.55L178.736,237.409z     M143.066,272.709l-0.051-0.01h-0.01l-1.74-0.8l1.82-1.67l1.811,1.64L143.066,272.709z M145.306,272.239l0.24,0.22l-0.39,0.38    l-1.01-0.06L145.306,272.239z M141.596,272.609l-0.22-0.01l-0.05,0.9l-0.33,0.15l-1.45-0.16l1.311-1.21L141.596,272.609z     M138.626,298.829l-1.79,0.21l-0.86-1.51l1.551,0.31L138.626,298.829z M138.506,298.039l1.21,0.24l0.75,0.34l-1.17,0.14    L138.506,298.039z M135.636,296.939l-0.529-0.93l1.06,0.6l0.63,0.56L135.636,296.939z M135.306,297.399l0.98,1.71l-2.46,0.28    l-0.5-2.39L135.306,297.399z M133.216,296.459l-0.34-1.71l1.36,0.77l0.739,1.29L133.216,296.459z M130.956,289.409l0.5,1.11    l0.17,0.81l-0.79-0.86L130.956,289.409z M130.746,282.409l0.72-0.79l-0.24,1.2l-0.34,0.76L130.746,282.409z M130.666,281.739    l-0.2-1.78l1.51-0.87l-0.31,1.55L130.666,281.739z M130.476,284.479l-0.6,1.35l-0.75-1.63l1.17-1.29L130.476,284.479z     M130.546,288.499l-0.17,1.47l-1.21-1.32l0.71-1.58L130.546,288.499z M130.156,286.449l0.439-0.98l0.141,1.22l-0.09,0.83    L130.156,286.449z M130.756,291.139l1.07,1.17l0.31,1.44l-1.56-0.88L130.756,291.139z M132.106,278.429l-1.71,0.98l-0.271-2.46    l2.38-0.5L132.106,278.429z M130.216,282.239l-1.319,1.46l-1.04-2.25l2.13-1.22L130.216,282.239z M129.596,286.449l-0.81,1.79    l-1.68-1.82l1.64-1.81L129.596,286.449z M128.936,289.159l1.36,1.49l-0.21,1.95l-2.16-1.21L128.936,289.159z M130.516,293.429    l1.75,0.99l0.41,1.93l-2.43-0.49L130.516,293.429z M132.506,293.039l0.82,0.9l0.42,0.72l-1.021-0.57L132.506,293.039z     M132.886,279.299l-0.55,0.61l0.23-1.16l0.92-0.52L132.886,279.299z M130.056,276.439l-0.409-3.51l3.489,0.38l-0.51,2.59    L130.056,276.439z M129.916,279.679l-2.27,1.3l-1.471-3.21l3.45-0.72L129.916,279.679z M128.516,284.109l-1.76,1.93l-2.38-2.6    l3.04-1.74L128.516,284.109z M126.766,286.799l1.79,1.95l-1.069,2.39l-3.08-1.74L126.766,286.799z M127.716,291.849l2.311,1.3    l-0.28,2.61l-3.47-0.7L127.716,291.849z M130.186,296.369l2.601,0.52l0.53,2.56l-3.511,0.41L130.186,296.369z M133.976,277.359    l-1.27,0.73l0.34-1.76l1.71-0.35L133.976,277.359z M133.156,275.789l0.49-2.43l2.43,0.27l-0.99,1.76L133.156,275.789z     M135.416,275.839l1.05-0.22l-0.899,0.83l-0.721,0.41L135.416,275.839z M135.756,275.249l0.87-1.56l1.75,0.19l-1.17,1.07    L135.756,275.249z M139.046,273.949l1.05,0.12l-1.12,0.51l-0.8,0.16L139.046,273.949z M138.856,273.419l-1.95-0.22l1.22-2.15    l2.22,1L138.856,273.419z M136.346,273.139l-2.6-0.28l0.71-3.46l3.19,1.44L136.346,273.139z M133.236,272.799l-3.65-0.39    l-0.63-5.49l5.01,2.26L133.236,272.799z M129.556,276.539l-3.6,0.75l-2.3-5.02l5.47,0.6L129.556,276.539z M127.206,281.229    l-3.19,1.83l-3.739-4.06l5.39-1.13L127.206,281.229z M126.416,286.419l-2.46,2.73l-4.82-2.71l4.78-2.74L126.416,286.419z     M124.056,289.789l3.221,1.81l-1.511,3.36l-5.409-1.09L124.056,289.789z M126.066,295.539l3.619,0.73l-0.399,3.65l-5.48,0.63    L126.066,295.539z M129.756,300.379l3.67-0.43l0.75,3.6l-5.02,2.3L129.756,300.379z M133.936,299.889l2.631-0.3l1.31,2.27    l-3.229,1.47L133.936,299.889z M137.126,299.519l2-0.23l1.45,1.32l-2.25,1.03L137.126,299.519z M139.796,299.209l1.41-0.16h0.01    l-0.13,0.53l1.15,0.27l-1.15,0.53L139.796,299.209z M143.046,300.039l1.23,0.29l0.85,0.39l-1.82,1.68l-1.81-1.65L143.046,300.039z     M143.206,294.999c-4.81,0-8.7-3.89-8.7-8.69s3.891-8.69,8.7-8.69c4.78,0,8.67,3.89,8.67,8.69S147.986,294.999,143.206,294.999z     M145.816,272.009l0.319-0.15l-0.229,0.23L145.816,272.009z M153.006,275.349l0.05,0.27l-1.979-0.39v-0.01L153.006,275.349z     M152.126,273.289l0.43-0.06l0.021,0.09L152.126,273.289z M151.296,297.229l1.93-0.4l-0.489,2.43l-2.42-0.27L151.296,297.229z     M150.966,296.779l-1.04,0.22l0.9-0.83l0.72-0.41L150.966,296.779z M156.246,295.399l0.03,0.28l-2.391,0.49l0.21-1.03    L156.246,295.399z M154.756,281.289l0.8,0.86l-0.12,1.06l-0.5-1.1L154.756,281.289z M155.796,287.149l-0.14-1.21l0.09-0.83    l0.49,1.07L155.796,287.149z M155.626,281.479l-1.07-1.16l-0.3-1.45l1.561,0.88L155.626,281.479z M154.126,278.199l-0.41-1.92    l2.431,0.49l-0.271,2.42L154.126,278.199z M153.606,275.729l-0.061-0.35l2.73,0.18l-0.07,0.7L153.606,275.729z M153.666,278.539    l0.22,1.05l-0.83-0.9l-0.409-0.73L153.666,278.539z M156.336,296.189l0.4,3.5l-3.48-0.38l0.521-2.59L156.336,296.189z     M156.406,287.039l0.109-0.25l0.03,0.07L156.406,287.039z M156.516,285.559l-0.659-1.44l0.159-1.47l1.21,1.32L156.516,285.559z     M156.086,281.979l0.22-1.96l2.15,1.21l-1,2.24L156.086,281.979z M153.106,273.349l-0.04-0.18l3.51-0.41l-0.09,0.81    L153.106,273.349z M153.176,276.169l0.351,1.7l-1.38-0.78l-0.73-1.28L153.176,276.169z M152.406,295.259l0.47-0.26l0.7,0.08    l-0.24,1.21l-1.7,0.35L152.406,295.259z M153.046,300.329l0.101-0.51l3.649,0.4l0.12,1.02l0.01,0.01l-3.88-0.91V300.329z     M156.776,295.569l-0.011-0.1l0.33,0.03L156.776,295.569z M156.906,286.419l-0.11-0.25l0.811-1.79l0.52,0.55L156.906,286.419z     M157.826,283.869l1.08-2.38l3.08,1.73l-1.471,1.62l-2.08-0.31L157.826,283.869z M158.666,280.769l-2.29-1.3l0.271-2.6l3.46,0.69    L158.666,280.769z M156.706,276.359l0.08-0.77l4.1,0.27l-0.56,1.23L156.706,276.359z M156.996,273.599l0.1-0.9l5.49-0.63    l-0.82,1.84L156.996,273.599z M156.636,272.249l-3.67,0.42l-0.05-0.24l4.14-3.99L156.636,272.249z M151.276,276.609l-1.061-0.6    l-0.51-0.48l0.05-0.05l1,0.2L151.276,276.609z M147.406,298.049l0.819-0.17l-0.869,0.79l-1.061-0.12L147.406,298.049z     M148.426,301.299l-0.16,0.28l-1.39-0.64L148.426,301.299z M148.026,298.739l1.18-1.07l1.43-0.3l-0.88,1.56L148.026,298.739z     M149.486,299.419l-0.03,0.07l-0.54-0.13L149.486,299.419z M148.936,301.429h0.011l3.21,0.75l-0.2,1.05l-3.22-1.44    L148.936,301.429z M149.966,299.609l0.08-0.13l2.59,0.28l-0.09,0.46L149.966,299.609z M152.646,302.299l4.52,1.06l0.27,2.34    l-5.02-2.26L152.646,302.299z M157.326,300.269l5.649,0.62l0.91,1.99l0.011,0.01l-6.44-1.52L157.326,300.269z M157.266,299.749    l-0.43-3.67l1.85-0.38l2.03,0.24l2.01,4.41L157.266,299.749z M162.436,283.479l4.051,2.27l-5.36-0.81L162.436,283.479z     M162.336,282.829l-3.21-1.81l1.5-3.35l5.42,1.09L162.336,282.829z M160.836,277.189l0.59-1.3h0.01l6.811,0.44l-1.811,1.99    L160.836,277.189z M162.306,273.939l0.87-1.94l10.05-1.17l-3.26,3.61L162.306,273.939z M162.826,271.529l-5.67,0.65l0.47-4.29    l2.58-2.48l6.77-3.1L162.826,271.529z M157.966,260.039l-6.319,6.32l-0.69-3.37l7.44-6.85L157.966,260.039z M151.216,266.789    l-3.16,3.16l-1.6-2.82l4.05-3.74L151.216,266.789z M147.686,270.319l-0.5,0.49l-1.789,0.82l-1.931-1.75l2.601-2.39    L147.686,270.319z M143.086,269.529l-2.71-2.47l2.69-4.81l2.739,4.78L143.086,269.529z M142.706,269.879l-1.95,1.79l-2.38-1.07    l1.73-3.08L142.706,269.879z M137.896,270.389l-3.351-1.51l1.09-5.41l4.08,3.7L137.896,270.389z M134.076,268.669l-5.2-2.34    l-1.16-10.06l7.49,6.8L134.076,268.669z M129.066,272.349l-5.66-0.62l-4.221-9.2l9.221,4.15L129.066,272.349z M125.456,277.399    l-5.58,1.16l-6.86-7.45l10.051,1.1L125.456,277.399z M123.556,283.319l-4.93,2.83l-8.83-4.97l9.91-2.06L123.556,283.319z     M123.596,289.529l-3.83,4.22l-9.92-2l8.78-5.02L123.596,289.529z M119.956,294.309l5.59,1.12l-2.33,5.19l-10.06,1.17    L119.956,294.309z M123.556,301.099l5.681-0.66l-0.61,5.66l-9.21,4.21L123.556,301.099z M129.096,306.439l5.181-2.38l1.18,5.58    l-7.46,6.85L129.096,306.439z M134.756,303.839l3.37-1.54l1.83,3.2l-4.08,3.73L134.756,303.839z M138.586,302.089l2.4-1.1    l1.939,1.76l-2.6,2.39L138.586,302.089z M143.306,303.089l2.721,2.47l-2.7,4.81l-2.74-4.78L143.306,303.089z M143.686,302.739    l1.95-1.79l2.38,1.07l-1.729,3.08L143.686,302.739z M148.486,302.229l3.35,1.51l-1.09,5.41l-4.07-3.69L148.486,302.229z     M152.316,303.959l5.189,2.33l1.17,10.06l-7.49-6.79L152.316,303.959z M157.706,303.489v-0.01l7.24,1.71h0.01l2.25,4.9l-9.23-4.14    L157.706,303.489z M164.536,303.039l-0.01-0.01l-0.95-2.07l10.32,1.12l3.71,4.03L164.536,303.039z M163.326,300.409l-2.021-4.4    l7.88,0.94l4.19,4.56L163.326,300.409z M162.796,283.089l3.83-4.22l9.92,2l-8.78,5.02L162.796,283.089z M167.016,278.429    l1.87-2.06l13.94,0.9l-5.61,3.21L167.016,278.429z M170.616,274.479l3.38-3.74l25.41-2.95l-13.42,7.67L170.616,274.479z     M173.746,270.259l-10.33,1.2l4.27-9.48l23.24-10.65L173.746,270.259z M167.296,261.599l-5.99,2.74l8.4-8.1L167.296,261.599z     M158.476,255.359l-7.649,7.05l-2.12-10.17l12.54-22.29L158.476,255.359z M150.386,262.809l-4.2,3.87l-2.829-4.95l4.97-8.82    L150.386,262.809z M143.066,261.219l-5.16-9.02l5.05-25.07l5.21,25.02L143.066,261.219z M142.776,261.729l-2.801,4.98l-4.22-3.83    l2-9.92L142.776,261.729z M135.316,262.479l-7.69-6.98l-2.95-25.4l12.7,22.19L135.316,262.479z M128.336,266.089l-9.46-4.27    l-10.67-23.25l18.93,17.18L128.336,266.089z M122.816,271.669l-10.32-1.13l-17.32-18.82l23.311,10.49L122.816,271.669z     M119.286,278.679l-10.16,2.12l-22.29-12.54l25.41,2.77L119.286,278.679z M118.106,286.439l-9.021,5.16l-25.08-5.04l25.04-5.22    L118.106,286.439z M109.166,292.139l10.21,2.05l-6.99,7.69l-25.399,2.95L109.166,292.139z M112.636,302.369l10.33-1.2l-4.26,9.47    l-23.25,10.65L112.636,302.369z M119.096,311.019l9.45-4.33l-1.12,10.33l-18.819,17.31L119.096,311.019z M127.906,317.259    l7.66-7.04l2.119,10.17l-12.55,22.28L127.906,317.259z M135.996,309.809l4.21-3.86l2.82,4.94l-4.96,8.82L135.996,309.809z     M143.326,311.409l5.16,9.01l-5.051,25.07l-5.21-25.02L143.326,311.409z M143.626,310.889l2.79-4.98l4.22,3.83l-2,9.92    L143.626,310.889z M151.076,310.139l7.689,6.98l2.95,25.4l-12.689-22.19L151.076,310.139z M158.046,306.539l9.47,4.26l10.66,23.25    l-18.93-17.18L158.046,306.539z M165.586,305.339l14.44,3.39l11.189,12.17l-23.31-10.49L165.586,305.339z M178.486,306.319    l-3.82-4.15l26.02,2.84l19.921,11.21L178.486,306.319z M174.136,301.589l-4.18-4.54l21.09,2.53l8.51,4.79L174.136,301.589z     M168.506,286.049l8.8-5.03l25.07,5.05l-14.21,2.96L168.506,286.049z M177.976,280.639l5.79-3.31l46.28,2.97l-26.399,5.5    L177.976,280.639z M254.826,260.499c-0.24,0.02-0.42,0.19-0.49,0.4l-52.51,6.1l45.89-26.26c0.181,0.12,0.41,0.14,0.61,0.02    l1.16-0.67c2.83,6.47,5.09,13.25,6.699,20.28L254.826,260.499z M247.736,239.789c-0.181,0.11-0.271,0.31-0.271,0.51l-46.92,26.85    l-26.03,3.02l17.591-19.38l49.199-22.55c0.16,0.1,0.36,0.13,0.551,0.05l1.319-0.58c2.15,3.66,4.11,7.44,5.87,11.33    L247.736,239.789z M241.386,227.269c-0.22,0.09-0.34,0.31-0.34,0.53l-48.06,22.02l35.529-39.15c0.21,0.06,0.44,0,0.591-0.17    l0.859-0.96c4.71,5.32,8.95,11.07,12.63,17.2L241.386,227.269z M229.216,208.689l-0.97,1.08c-0.14,0.16-0.17,0.37-0.1,0.56    l-36.341,40.03l-23.81,10.91l2.689-5.97l53.641-51.7C226.006,205.249,227.636,206.939,229.216,208.689z M201.476,187.669    l0.53-1.21c6.12,3.61,11.87,7.77,17.2,12.41l-7.66,7.66l-32.27,29.7l21.689-48.22    C201.186,187.999,201.386,187.879,201.476,187.669z M188.906,181.379l0.74-1.26c3.909,1.71,7.71,3.64,11.38,5.76l-0.591,1.35    c-0.09,0.2-0.05,0.41,0.07,0.57l-22.189,49.3l-19.271,17.74l2.84-26.02l26.55-47.16    C188.626,181.649,188.806,181.559,188.906,181.379z M168.136,174.489l0.141-1.36c7.04,1.56,13.85,3.76,20.33,6.53l-0.681,1.17    c-0.12,0.2-0.1,0.45,0.04,0.63l-25.939,46.06l5.739-52.55C167.966,174.889,168.126,174.709,168.136,174.489z M154.246,172.389    l0.31-1.44c4.28,0.42,8.49,1.07,12.61,1.94l-0.15,1.5c-0.02,0.21,0.08,0.4,0.24,0.52l-5.859,53.75l-12.851,22.81l-5.34-25.62    l10.68-53.05C154.056,172.729,154.206,172.589,154.246,172.389z M143.206,170.389c3.44,0,6.85,0.16,10.22,0.46l-0.279,1.32    c-0.061,0.23,0.039,0.46,0.229,0.58l-10.42,51.83l-10.8-51.76c0.17-0.13,0.26-0.35,0.22-0.57l-0.3-1.32    C135.736,170.579,139.456,170.389,143.206,170.389z M118.356,173.079c4.119-0.9,8.319-1.59,12.6-2.04l0.31,1.47    c0.04,0.21,0.2,0.36,0.391,0.41l11.029,52.94l-5.17,25.67l-12.989-22.72l-6.24-53.76c0.14-0.11,0.229-0.29,0.21-0.5    L118.356,173.079z M117.246,173.319l0.14,1.36c0.021,0.24,0.181,0.42,0.391,0.49l6.1,52.51l-26.25-45.89    c0.12-0.18,0.14-0.41,0.021-0.61l-0.681-1.16C103.456,177.189,110.226,174.929,117.246,173.319z M95.926,180.469l0.75,1.3    c0.11,0.18,0.311,0.27,0.5,0.27l26.851,46.93l3.02,26.01l-19.38-17.59l-22.54-49.19c0.1-0.16,0.13-0.36,0.05-0.55l-0.58-1.32    C88.246,184.179,92.026,182.219,95.926,180.469z M83.626,186.909l0.521,1.21c0.1,0.22,0.31,0.35,0.529,0.34l22.03,48.06    l-39.15-35.53c0.07-0.21,0-0.44-0.17-0.59l-0.96-0.86C71.746,194.819,77.496,190.589,83.626,186.909z M65.566,200.289l1.08,0.97    c0.159,0.14,0.38,0.17,0.56,0.1l40.04,36.34l10.91,23.8l-23.86-10.73l-36.649-39.83c0.06-0.18,0.01-0.38-0.12-0.53l-0.94-1.06    C59.416,206.169,62.416,203.149,65.566,200.289z M55.836,210.199l0.87,0.97c0.15,0.18,0.39,0.24,0.6,0.16l35.801,38.9    l-48.21-21.69c-0.011-0.22-0.141-0.42-0.341-0.51l-1.22-0.53C46.976,221.349,51.166,215.559,55.836,210.199z M42.756,228.479    l1.37,0.59c0.18,0.09,0.39,0.05,0.55-0.07l49.311,22.19l17.729,19.27l-26.01-2.84l-47.16-26.55c-0.02-0.19-0.11-0.37-0.28-0.47    l-1.27-0.74C38.716,235.949,40.636,232.149,42.756,228.479z M36.546,240.899l1.17,0.68c0.2,0.12,0.45,0.1,0.62-0.04l46.08,25.94    l-52.56-5.74c-0.08-0.2-0.261-0.35-0.48-0.38l-1.36-0.13C31.576,254.189,33.766,247.389,36.546,240.899z M29.776,262.339l1.5,0.15    c0.21,0.03,0.399-0.08,0.51-0.24l53.76,5.86l22.83,12.85l-25.64,5.34l-53.051-10.68c-0.06-0.17-0.21-0.32-0.409-0.36l-1.44-0.32    C28.246,270.669,28.906,266.469,29.776,262.339z M27.276,286.309c0-3.45,0.159-6.86,0.449-10.23l1.32,0.29    c0.24,0.05,0.47-0.05,0.59-0.24l51.83,10.43l-51.76,10.79c-0.13-0.16-0.35-0.26-0.57-0.21l-1.33,0.29    C27.456,293.769,27.276,290.059,27.276,286.309z M27.916,298.559l1.47-0.32c0.221-0.04,0.36-0.2,0.42-0.39l52.94-11.03l25.67,5.16    l-22.71,13l-53.771,6.24c-0.119-0.14-0.3-0.23-0.5-0.22l-1.479,0.15C29.056,307.029,28.376,302.829,27.916,298.559z     M30.206,312.259l1.36-0.14c0.239-0.02,0.42-0.18,0.479-0.39l52.521-6.1l-45.891,26.25c-0.18-0.12-0.42-0.14-0.609-0.02    l-1.17,0.68C34.076,326.059,31.816,319.279,30.206,312.259z M37.356,333.579l1.29-0.75c0.189-0.11,0.279-0.31,0.279-0.5    l46.92-26.85l26.03-3.02l-17.6,19.37l-49.2,22.55c-0.15-0.1-0.351-0.13-0.53-0.05l-1.33,0.58    C41.066,341.259,39.106,337.479,37.356,333.579z M43.786,345.889l1.22-0.53c0.22-0.1,0.34-0.31,0.34-0.53l48.061-22.03    l-35.53,39.15c-0.21-0.06-0.44,0-0.59,0.16l-0.87,0.97C51.706,357.759,47.476,352.009,43.786,345.889z M57.176,363.939l0.96-1.08    c0.15-0.16,0.181-0.38,0.11-0.57l36.34-40.03l23.8-10.91l-10.739,23.87l-39.82,36.64c-0.18-0.05-0.37-0.01-0.53,0.12l-1.06,0.94    C63.056,370.089,60.026,367.089,57.176,363.939z M84.916,384.949l-0.54,1.21c-6.15-3.63-11.94-7.82-17.29-12.49l0.97-0.86    c0.181-0.16,0.23-0.4,0.16-0.61l38.91-35.8l-21.71,48.21C85.206,384.619,85.006,384.749,84.916,384.949z M96.746,392.499    c-3.91-1.71-7.7-3.63-11.37-5.75l0.58-1.35c0.09-0.2,0.05-0.41-0.07-0.57l22.19-49.31l19.26-17.73l-2.84,26.01l-26.54,47.16    c-0.19,0.02-0.37,0.11-0.47,0.28L96.746,392.499z M118.246,398.129l-0.12,1.36c-7.05-1.56-13.85-3.75-20.35-6.53l0.689-1.17    c0.12-0.2,0.09-0.45-0.04-0.62l25.931-46.08l-5.73,52.56C118.426,397.729,118.276,397.909,118.246,398.129z M132.146,400.229    l-0.32,1.44c-4.271-0.42-8.48-1.07-12.601-1.94l0.15-1.5c0.021-0.21-0.08-0.4-0.24-0.51l5.86-53.76l12.85-22.82l5.34,25.63    l-10.68,53.05C132.336,399.889,132.186,400.039,132.146,400.229z M143.206,402.229c-3.46,0-6.87-0.16-10.25-0.46l0.29-1.32    c0.05-0.23-0.04-0.46-0.23-0.58l10.44-51.83l10.78,51.76c-0.17,0.13-0.261,0.35-0.21,0.57l0.29,1.32    C150.656,402.039,146.956,402.229,143.206,402.229z M168.046,399.539c-4.13,0.9-8.33,1.59-12.59,2.04l-0.33-1.47    c-0.04-0.21-0.2-0.36-0.39-0.41l-11.03-52.93l5.17-25.67l13,22.71l6.23,53.76c-0.15,0.12-0.23,0.3-0.221,0.5L168.046,399.539z     M169.136,399.299l-0.13-1.36c-0.02-0.24-0.189-0.42-0.399-0.49l-6.101-52.51l26.26,45.89c-0.119,0.18-0.14,0.42-0.029,0.61    l0.68,1.16C182.956,395.429,176.166,397.689,169.136,399.299z M190.466,392.149l-0.75-1.29c-0.109-0.19-0.31-0.28-0.51-0.28    l-26.85-46.93l-3.021-26.01l19.38,17.59l22.55,49.2c-0.1,0.16-0.13,0.35-0.05,0.54l0.58,1.32    C198.136,388.439,194.356,390.399,190.466,392.149z M202.766,385.709l-0.529-1.21c-0.09-0.22-0.311-0.34-0.53-0.34l-22.03-48.06    l39.15,35.53c-0.05,0.21,0,0.44,0.17,0.59l0.97,0.86C214.646,377.799,208.886,382.029,202.766,385.709z M220.816,372.329    l-1.08-0.96c-0.16-0.15-0.36-0.18-0.561-0.11l-40.04-36.34l-10.91-23.8l23.87,10.74l36.65,39.82c-0.04,0.18-0.021,0.38,0.13,0.53    l0.93,1.06C226.976,366.449,223.976,369.479,220.816,372.329z M230.556,362.419l-0.85-0.97c-0.16-0.18-0.42-0.23-0.62-0.16    l-35.81-38.9l48.22,21.7c0.01,0.21,0.13,0.41,0.34,0.5l1.21,0.53C239.416,351.279,235.226,357.069,230.556,362.419z     M243.626,344.149l-1.35-0.6c-0.2-0.09-0.4-0.05-0.57,0.07l-49.31-22.19l-11.5-12.49l45.979,10.81l20.97,11.8    c0.011,0.19,0.11,0.37,0.28,0.47l1.26,0.74C247.676,336.669,245.746,340.469,243.626,344.149z M249.846,331.729l-1.17-0.68    c-0.2-0.13-0.45-0.1-0.63,0.03l-19.39-10.91l-0.01-0.01l23.56,5.55C251.476,327.749,250.686,329.749,249.846,331.729z     M252.876,323.809l-30.49-7.17l-20.41-11.49l52.57,5.73c0.08,0.2,0.25,0.35,0.47,0.38l1.36,0.13    C255.446,315.619,254.276,319.769,252.876,323.809z M256.626,310.279l-1.5-0.15c-0.22-0.02-0.42,0.08-0.53,0.24l-53.75-5.86    l-8.47-4.78l64.79,7.78C256.996,308.439,256.806,309.359,256.626,310.279z M258.346,299.649l-68.739-10.4l14.04-2.93l53.06,10.68    c0.07,0.17,0.21,0.32,0.42,0.36l1.43,0.31C258.496,298.329,258.416,298.989,258.346,299.649z M258.656,296.549l-1.32-0.29    c-0.229-0.05-0.46,0.04-0.58,0.23l-51.84-10.43l27.02-5.64l27.091,1.74c0.06,1.38,0.1,2.76,0.1,4.15    C259.126,289.759,258.956,293.169,258.656,296.549z M233.656,194.599l24.609-23.72l0.65-0.35l45.01,112.52l-32.02-2.06    C270.536,247.219,256.156,216.799,233.656,194.599z M265.526,326.779c1.899-5.74,3.409-11.66,4.489-17.73l21.62,2.59    c-0.01,0.29-0.01,0.58-0.01,0.87c0,9.61,4.76,18.1,12.05,23.24L265.526,326.779z M292.666,304.839l-21.54-3.26    c0.59-5.01,0.89-10.1,0.89-15.27c0-1.11-0.01-2.22-0.04-3.31l32.78,2.1l1.101,2.77    C299.486,291.539,294.686,297.609,292.666,304.839z M320.056,326.649c-7.529,0-13.68-5.88-14.1-13.3    c-0.03-0.28-0.04-0.56-0.04-0.84c0-1.95,0.39-3.81,1.11-5.5c0.93-2.2,2.399-4.12,4.25-5.58c2.159-1.72,4.83-2.81,7.75-3.02    c0.35-0.03,0.68-0.04,1.029-0.04c0.92,0,1.82,0.09,2.69,0.26c3.41,0.65,6.38,2.54,8.439,5.17c1.881,2.4,3,5.42,3,8.71    C334.186,320.319,327.856,326.649,320.056,326.649z M332.656,287.009c-3.8-1.88-8.08-2.94-12.601-2.94c-0.02,0-0.05,0-0.08,0.01    l-6.649-0.43l-45.521-117.91l0.521-0.28l177.67-50.67l9.46,28.33L332.656,287.009z M455.106,100.949l-10.96-38.36    c2.449-6.94,3.06-7.55,3.67-8.57c0.609-1.02,5.3,4.08,12.239,0c2.851-3.06,5.5-10.2-1.43-16.93c-1.43-3.26-1.84-6.93-1.84-6.93    s-0.89-4.85-6.47-9.41c10.27,4.09,22.04,11.35,28.79,24.12c10.68,20.2,6.3,48.51-12.99,84.19L455.106,100.949z M657.166,274.059    l-1.46,0.32c-0.22,0.04-0.37,0.2-0.42,0.39l-52.94,11.03l-25.67-5.16l22.721-13l53.75-6.24c0.119,0.14,0.31,0.24,0.5,0.22    l1.479-0.15C656.036,265.589,656.716,269.789,657.166,274.059z M541.896,294.999c-4.801,0-8.69-3.89-8.69-8.69    s3.89-8.69,8.69-8.69c4.789,0,8.68,3.89,8.68,8.69S546.686,294.999,541.896,294.999z M543.096,298.859l-1.069,0.49l-0.971-0.43    l1.221-0.15L543.096,298.859z M534.006,297.399l0.98,1.71l-2.46,0.28l-0.5-2.39L534.006,297.399z M533.806,296.009l1.07,0.6    l0.61,0.56l-1.15-0.23L533.806,296.009z M534.676,297.529l1.55,0.31l1.091,0.99l-1.771,0.21L534.676,297.529z M537.206,298.039    l1.2,0.24l0.75,0.34l-1.17,0.14L537.206,298.039z M536.086,274.769c-0.25-0.26-0.53-0.58-0.84-0.94l0.08-0.14l1.729,0.19    L536.086,274.769z M537.736,273.949l1.05,0.12l-1.11,0.51l-0.8,0.16L537.736,273.949z M540.686,273.759l1.07-0.49l0.97,0.44    l-1.21,0.14L540.686,273.759z M554.326,281.479l-1.07-1.16l-0.3-1.45l1.56,0.88L554.326,281.479z M554.936,286.179l-0.439,0.97    l-0.14-1.21l0.1-0.83L554.936,286.179z M553.876,289.789l0.33-0.74l0.13,1.16l-0.71,0.79L553.876,289.789z M553.456,281.289    l0.8,0.86l-0.12,1.06l-0.51-1.1L553.456,281.289z M553.426,291.969l0.99-1.09l0.21,1.79l-1.5,0.86L553.426,291.969z     M554.606,288.139l0.609-1.35l0.75,1.63l-1.17,1.29L554.606,288.139z M555.206,285.559l-0.65-1.44l0.16-1.47l1.21,1.32    L555.206,285.559z M554.576,279.189l-1.76-0.99l-0.4-1.92l2.42,0.49L554.576,279.189z M552.586,279.589l-0.83-0.9l-0.42-0.73    l1.04,0.58L552.586,279.589z M552.206,293.319l0.55-0.61l-0.229,1.16l-0.931,0.53L552.206,293.319z M552.976,294.189l1.71-0.97    l0.28,2.46l-2.39,0.49L552.976,294.189z M554.876,290.379l1.33-1.46l1.02,2.26l-2.119,1.21L554.876,290.379z M555.496,286.169    l0.81-1.79l1.67,1.82l-1.64,1.81L555.496,286.169z M556.156,283.469l-1.37-1.49l0.21-1.96l2.16,1.21L556.156,283.469z     M554.896,276.259l-2.601-0.53l-0.53-2.56l3.511-0.41L554.896,276.259z M551.876,276.169l0.35,1.7l-1.38-0.78l-0.72-1.28    L551.876,276.169z M549.776,275.229l-0.98-1.71l2.46-0.29l0.5,2.39L549.776,275.229z M549.976,276.609l-1.06-0.6l-0.61-0.56    l1.15,0.23L549.976,276.609z M549.126,275.089l-1.56-0.31l-1.101-0.99l1.78-0.21L549.126,275.089z M546.586,274.579l-1.2-0.24    l-0.76-0.34l1.17-0.13L546.586,274.579z M550.246,295.759l-0.58,1.02l-1.04,0.22l0.89-0.83L550.246,295.759z M546.106,298.049    l0.81-0.17l-0.86,0.79l-1.06-0.12L546.106,298.049z M547.886,297.669l1.45-0.3l-0.88,1.56l-1.73-0.19L547.886,297.669z     M549.996,297.229l1.93-0.4l-0.49,2.43l-2.43-0.27L549.996,297.229z M550.326,296.639l0.78-1.38l1.279-0.73l-0.34,1.76    L550.326,296.639z M552.466,296.719l2.561-0.53l0.409,3.5l-3.479-0.38L552.466,296.719z M555.166,292.939l2.27-1.3l1.48,3.22    l-3.44,0.71L555.166,292.939z M556.566,288.509l1.76-1.94l2.39,2.61l-3.05,1.74L556.566,288.509z M558.316,285.819l-1.79-1.95    l1.08-2.38l3.09,1.73L558.316,285.819z M557.376,280.769l-2.32-1.3l0.29-2.6l3.46,0.69L557.376,280.769z M555.396,276.359    l0.399-3.66l5.49-0.63l-2.25,5.02L555.396,276.359z M555.336,272.249l-3.67,0.42l-0.75-3.6l5.01-2.3L555.336,272.249z     M551.156,272.729l-2.63,0.31l-1.301-2.28l3.21-1.47L551.156,272.729z M547.976,273.099l-2.01,0.23l-1.46-1.32l2.25-1.03    L547.976,273.099z M545.296,273.409l-1.57,0.18l-1.35-0.6l1.63-0.75L545.296,273.409z M541.756,272.709l-1.79-0.81l1.82-1.67    l1.8,1.64L541.756,272.709z M541.136,272.989l-1.43,0.66l-1.47-0.16l1.319-1.21L541.136,272.989z M537.556,273.419l-1.96-0.22    l1.221-2.15l2.229,1L537.556,273.419z M535.046,273.139l-0.41-0.04c-0.529-0.66-1.13-1.44-1.76-2.31l0.271-1.39l3.199,1.44    L535.046,273.139z M532.936,295.519l0.73,1.29l-1.75-0.35l-0.36-1.71L532.936,295.519z M527.856,288.649l0.72-1.58l0.66,1.43    l-0.16,1.47L527.856,288.649z M528.996,290.649l-0.21,1.95l-2.16-1.21l1-2.23L528.996,290.649z M528.846,286.449l0.44-0.98    l0.14,1.22l-0.09,0.83L528.846,286.449z M529.456,291.139l1.07,1.17l0.3,1.44l-1.561-0.88L529.456,291.139z M529.926,282.819    l-0.35,0.76l-0.12-1.17l0.71-0.79L529.926,282.819z M530.326,291.329l-0.8-0.86l0.12-1.06l0.51,1.11L530.326,291.329z     M530.356,280.639l-0.98,1.1l-0.22-1.78l1.52-0.87L530.356,280.639z M529.176,284.479l-0.609,1.35l-0.75-1.63l1.18-1.29    L529.176,284.479z M528.286,286.449l-0.811,1.79l-1.67-1.82l1.65-1.81L528.286,286.449z M525.456,286.039l-2.39-2.6l3.06-1.74    l1.09,2.41L525.456,286.039z M527.256,288.749l-1.08,2.39l-3.08-1.74l2.36-2.6L527.256,288.749z M526.416,291.849l2.31,1.3    l-0.29,2.61l-3.46-0.7L526.416,291.849z M528.886,296.369l2.601,0.52l0.529,2.56l-3.51,0.41L528.886,296.369z M531.416,294.089    l-0.21-1.05l0.82,0.9l0.43,0.72L531.416,294.089z M532.456,270.229c-0.39-0.53-0.8-1.1-1.22-1.7l1.43,0.65L532.456,270.229z     M531.266,278.749l0.28-0.15c0.101,0.11,0.19,0.21,0.271,0.29l-0.23,0.41l-0.56,0.61L531.266,278.749z M531.376,296.349    l-2.42-0.49l0.25-2.43l1.76,0.99L531.376,296.349z M530.806,278.429l-1.71,0.98l-0.29-2.46l0.98-0.2c0.43,0.45,0.8,0.85,1.12,1.18    L530.806,278.429z M528.746,276.439l-0.11-0.94c0.261,0.29,0.511,0.56,0.75,0.81L528.746,276.439z M528.676,280.229l0.24,2.01    l-1.33,1.46l-1.03-2.25L528.676,280.229z M526.346,280.979l-1.47-3.21l3.43-0.72l0.32,2.63L526.346,280.979z M525.896,281.229    l-3.19,1.83l-3.73-4.06l5.381-1.13L525.896,281.229z M525.126,286.419l-2.479,2.73l-4.811-2.71l4.771-2.74L525.126,286.419z     M522.746,289.789l3.22,1.81l-1.51,3.36l-5.41-1.09L522.746,289.789z M524.766,295.539l3.62,0.73l-0.399,3.65l-5.48,0.63    L524.766,295.539z M528.456,300.379l3.67-0.43l0.75,3.6l-5.02,2.3L528.456,300.379z M532.626,299.889l2.63-0.3l1.3,2.27    l-3.21,1.47L532.626,299.889z M535.816,299.519l2-0.23l1.46,1.32l-2.25,1.03L535.816,299.519z M538.496,299.209l1.57-0.18    l1.35,0.6l-1.64,0.75L538.496,299.209z M542.026,299.909l1.8,0.81l-1.82,1.68l-1.8-1.65L542.026,299.909z M542.646,299.629    l1.439-0.66l1.47,0.16l-1.319,1.22L542.646,299.629z M546.226,299.209l1.96,0.21l-1.22,2.16l-2.229-1.01L546.226,299.209z     M548.736,299.479l2.6,0.28l-0.7,3.47l-3.2-1.44L548.736,299.479z M551.846,299.819l3.65,0.4l0.64,5.48l-5.01-2.26    L551.846,299.819z M555.546,296.079l3.58-0.75l2.3,5.02l-5.47-0.6L555.546,296.079z M557.886,291.389l3.19-1.83l3.74,4.06    l-5.391,1.13L557.886,291.389z M558.666,286.199l2.47-2.72l4.82,2.7l-4.78,2.74L558.666,286.199z M561.046,282.829l-3.229-1.81    l1.51-3.35l5.41,1.09L561.046,282.829z M559.546,277.189l2.33-5.19l10.05-1.17l-6.79,7.49L559.546,277.189z M561.536,271.529    l-5.68,0.65l0.619-5.66l9.2-4.21L561.536,271.529z M555.996,266.179l-5.19,2.38l-1.159-5.57l7.449-6.85L555.996,266.179z     M550.326,268.779l-3.36,1.54l-1.819-3.19l4.06-3.74L550.326,268.779z M546.506,270.529l-2.41,1.1l-1.93-1.75l2.59-2.4    L546.506,270.529z M541.776,269.529l-2.721-2.47l2.71-4.81l2.73,4.78L541.776,269.529z M541.406,269.879l-1.95,1.79l-2.39-1.07    l1.729-3.08L541.406,269.879z M536.596,270.389l-3.35-1.51l1.09-5.41l4.08,3.7L536.596,270.389z M532.766,268.669l-2.109-0.95    c-1.09-1.56-2.28-3.3-3.521-5.16l-0.729-6.29l7.49,6.8L532.766,268.669z M528.066,274.879l0.189,1.66l-3.6,0.75l-2.3-5.02    l3.689,0.4C526.756,273.469,527.436,274.209,528.066,274.879z M522.106,271.729l-3.301-7.2c2.431,2.82,4.74,5.39,6.71,7.57    L522.106,271.729z M524.146,277.399l-5.58,1.16l-6.851-7.45l10.05,1.1L524.146,277.399z M522.256,283.319l-4.939,2.83l-8.82-4.97    l9.89-2.06L522.256,283.319z M522.296,289.529l-3.83,4.22l-9.92-2l8.771-5.02L522.296,289.529z M518.646,294.309l5.6,1.12    l-2.34,5.19l-10.05,1.17L518.646,294.309z M522.256,301.099l5.67-0.66l-0.609,5.66l-9.19,4.21L522.256,301.099z M527.786,306.439    l5.189-2.38l1.16,5.58l-7.43,6.85L527.786,306.439z M533.456,303.839l3.36-1.54l1.819,3.2l-4.06,3.73L533.456,303.839z     M537.276,302.089l2.409-1.1l1.94,1.76l-2.6,2.39L537.276,302.089z M542.006,303.089l2.72,2.47l-2.71,4.81l-2.729-4.78    L542.006,303.089z M542.386,302.739l1.94-1.79l2.39,1.07l-1.729,3.08L542.386,302.739z M547.186,302.229l3.36,1.51l-1.09,5.41    l-4.08-3.69L547.186,302.229z M551.016,303.959l5.19,2.33l1.17,10.06l-7.49-6.79L551.016,303.959z M556.016,300.269l5.66,0.62    l4.221,9.2l-9.221-4.14L556.016,300.269z M559.646,295.219l5.569-1.16l6.851,7.45l-10.051-1.1L559.646,295.219z M561.536,289.299    l4.93-2.82l8.82,4.96l-9.89,2.06L561.536,289.299z M561.486,283.089l3.83-4.22l9.93,2l-8.78,5.02L561.486,283.089z     M565.716,278.429l6.99-7.69l25.41-2.95l-22.2,12.69L565.716,278.429z M572.456,270.259l-10.33,1.2l4.25-9.48l23.25-10.65    L572.456,270.259z M565.996,261.599l-9.45,4.33l1.12-10.32l18.81-17.32L565.996,261.599z M557.176,255.359l-7.649,7.05    l-2.12-10.17l12.55-22.29L557.176,255.359z M549.086,262.809l-4.2,3.87l-2.83-4.95l4.971-8.82L549.086,262.809z M541.756,261.219    l-5.149-9.02l5.04-25.07l5.229,25.02L541.756,261.219z M541.466,261.729l-2.8,4.98l-4.21-3.83l2-9.92L541.466,261.729z     M534.016,262.479l-7.699-6.98l-2.94-25.4l12.69,22.19L534.016,262.479z M526.516,261.629c-2.64-3.97-5.489-8.4-8.25-12.75    l7.57,6.87L526.516,261.629z M521.516,271.669l-10.33-1.13l-17.31-18.82l22.73,10.23c0.319,0.39,0.649,0.77,0.979,1.15    L521.516,271.669z M517.986,278.679l-10.17,2.12l-22.271-12.54l25.41,2.77L517.986,278.679z M516.796,286.439l-9.02,5.16    l-25.07-5.04l25.03-5.22L516.796,286.439z M507.876,292.139l10.19,2.05l-6.98,7.69l-25.41,2.95L507.876,292.139z M511.336,302.369    l10.33-1.2l-4.26,9.47l-23.25,10.65L511.336,302.369z M517.796,311.019l9.45-4.33l-1.12,10.33l-18.82,17.31L517.796,311.019z     M526.606,317.259l7.649-7.04l2.12,10.17l-12.54,22.28L526.606,317.259z M534.706,309.809l4.19-3.86l2.829,4.94l-4.97,8.82    L534.706,309.809z M542.016,311.409l5.16,9.01l-5.04,25.07l-5.22-25.02L542.016,311.409z M542.316,310.889l2.81-4.98l4.2,3.83    l-1.99,9.92L542.316,310.889z M549.766,310.139l7.69,6.98l2.95,25.4l-12.69-22.19L549.766,310.139z M556.746,306.539l9.47,4.26    l10.66,23.25l-18.92-17.18L556.746,306.539z M562.266,300.959l10.33,1.12l17.32,18.82l-23.3-10.49L562.266,300.959z     M565.796,293.939l10.17-2.12l22.28,12.55l-25.41-2.78L565.796,293.939z M566.986,286.179l9.01-5.16l25.08,5.05l-25.03,5.21    L566.986,286.179z M654.886,260.369l-1.35,0.13c-0.25,0.02-0.44,0.19-0.49,0.4l-52.53,6.1l45.9-26.26    c0.17,0.12,0.41,0.14,0.6,0.02l1.181-0.67C651.016,246.559,653.286,253.339,654.886,260.369z M647.726,239.039l-1.279,0.75    c-0.19,0.11-0.29,0.31-0.28,0.51l-46.94,26.85l-26.01,3.02l17.59-19.38l49.2-22.55c0.16,0.1,0.37,0.13,0.54,0.05l1.33-0.58    C644.036,231.369,645.986,235.149,647.726,239.039z M641.296,226.739l-1.21,0.53c-0.21,0.09-0.35,0.31-0.34,0.53l-48.05,22.02    l35.52-39.15c0.2,0.06,0.431,0,0.59-0.17l0.86-0.96C633.376,214.859,637.626,220.609,641.296,226.739z M627.906,208.689    l-0.95,1.08c-0.15,0.16-0.17,0.37-0.11,0.56l-36.34,40.03l-23.8,10.91l10.74-23.86l39.81-36.65c0.19,0.05,0.391,0.02,0.54-0.12    l1.05-0.94C622.036,202.529,625.056,205.529,627.906,208.689z M600.176,187.669l0.53-1.21c6.16,3.63,11.94,7.82,17.3,12.49    l-0.96,0.86c-0.18,0.16-0.25,0.4-0.17,0.61l-38.91,35.8l21.7-48.21C599.876,187.999,600.076,187.879,600.176,187.669z     M588.346,180.119c3.91,1.71,7.71,3.64,11.38,5.76l-0.6,1.35c-0.08,0.2-0.04,0.41,0.08,0.57l-22.19,49.3l-19.27,17.74l2.84-26.02    l26.55-47.16c0.19-0.01,0.37-0.1,0.48-0.28L588.346,180.119z M566.836,174.489l0.14-1.36c7.04,1.56,13.841,3.76,20.33,6.53    l-0.68,1.17c-0.12,0.2-0.09,0.45,0.04,0.63l-25.94,46.06l5.74-52.55C566.666,174.889,566.816,174.709,566.836,174.489z     M552.936,172.389l0.32-1.44c4.271,0.42,8.48,1.07,12.61,1.94l-0.16,1.5c-0.01,0.21,0.09,0.4,0.25,0.52l-5.87,53.75l-12.84,22.81    l-5.34-25.62l10.67-53.05C552.756,172.729,552.896,172.589,552.936,172.389z M541.886,170.389c3.45,0,6.87,0.16,10.24,0.46    l-0.29,1.32c-0.05,0.23,0.05,0.46,0.23,0.58l-10.431,51.83l-10.779-51.76c0.159-0.13,0.25-0.35,0.199-0.57l-0.279-1.32    C534.436,170.579,538.136,170.389,541.886,170.389z M517.056,173.079c4.12-0.9,8.32-1.59,12.58-2.04l0.32,1.47    c0.05,0.21,0.21,0.36,0.39,0.41l11.04,52.94l-5.17,25.67l-13-22.72l-6.24-53.76c0.15-0.11,0.24-0.29,0.23-0.5L517.056,173.079z     M515.956,173.319l0.12,1.36c0.03,0.24,0.189,0.42,0.399,0.49l6.101,52.51l-26.25-45.89c0.109-0.18,0.13-0.41,0.02-0.61    l-0.68-1.16C502.146,177.189,508.926,174.929,515.956,173.319z M494.626,180.469l0.75,1.3c0.11,0.18,0.3,0.27,0.5,0.27    l26.85,46.93l3.021,26.01l-8.51-7.72c-7.061-11.2-13.24-21.44-13.24-21.44l-16.4-41.89    C489.886,182.689,492.236,181.539,494.626,180.469z M477.046,190.289c5.94,13.05,12.16,26.79,15.5,34.55l-26.29-23.85    c0.061-0.21,0-0.44-0.17-0.59l-0.96-0.86C468.886,196.199,472.876,193.109,477.046,190.289z M464.266,200.289l1.08,0.97    c0.16,0.14,0.37,0.17,0.561,0.1l27.109,24.6c0.311,0.74,0.591,1.41,0.841,2.01c2.63,8.75,12.779,22.15,21.97,33.07l-22.84-10.27    l-36.641-39.83c0.04-0.18,0.011-0.38-0.12-0.53l-0.939-1.06C458.126,206.169,461.106,203.149,464.266,200.289z M454.546,210.199    l0.851,0.97c0.159,0.18,0.399,0.24,0.609,0.16l35.8,38.9l-48.22-21.69c-0.01-0.22-0.13-0.42-0.34-0.51l-1.2-0.53    C445.676,221.349,449.856,215.559,454.546,210.199z M441.456,228.479l1.35,0.59c0.2,0.09,0.41,0.05,0.57-0.07l49.31,22.19    l17.73,19.27l-26.01-2.84l-47.17-26.55c-0.011-0.19-0.101-0.37-0.271-0.47l-1.26-0.74    C437.416,235.949,439.336,232.149,441.456,228.479z M435.246,240.899l1.16,0.68c0.22,0.12,0.45,0.1,0.64-0.04l46.061,25.94    l-52.561-5.74c-0.07-0.2-0.25-0.35-0.479-0.38l-1.351-0.13C430.266,254.189,432.466,247.389,435.246,240.899z M428.466,262.339    l1.5,0.15c0.22,0.03,0.41-0.08,0.521-0.24l53.76,5.86l22.81,12.85l-25.62,5.34l-53.06-10.68c-0.06-0.17-0.21-0.32-0.4-0.36    l-1.449-0.32C426.956,270.669,427.596,266.469,428.466,262.339z M425.966,286.309c0-3.45,0.17-6.86,0.46-10.23l1.32,0.29    c0.24,0.05,0.47-0.05,0.59-0.24l51.83,10.43l-51.76,10.79c-0.13-0.16-0.351-0.26-0.58-0.21l-1.32,0.29    C426.156,293.769,425.966,290.059,425.966,286.309z M426.626,298.559l1.46-0.32c0.21-0.04,0.37-0.2,0.42-0.39l52.93-11.03    l25.671,5.16l-22.71,13l-53.761,6.24c-0.12-0.14-0.3-0.23-0.5-0.22l-1.479,0.15C427.756,307.029,427.066,302.829,426.626,298.559z     M428.896,312.259l1.369-0.14c0.23-0.02,0.42-0.18,0.48-0.39l52.51-6.1l-45.88,26.25c-0.17-0.12-0.42-0.14-0.62-0.02l-1.16,0.68    C432.766,326.059,430.516,319.279,428.896,312.259z M436.056,333.579l1.29-0.75c0.2-0.11,0.28-0.31,0.28-0.5l46.92-26.85    l26.021-3.02l-17.591,19.37l-49.199,22.55c-0.15-0.1-0.36-0.13-0.54-0.05l-1.33,0.58    C439.756,341.259,437.806,337.479,436.056,333.579z M442.486,345.889l1.22-0.53c0.21-0.1,0.34-0.31,0.34-0.53l48.061-22.03    l-35.54,39.15c-0.19-0.06-0.431,0-0.591,0.16l-0.85,0.97C450.406,357.759,446.166,352.009,442.486,345.889z M455.876,363.939    l0.96-1.08c0.14-0.16,0.17-0.38,0.12-0.57l36.33-40.03l23.8-10.91l-10.74,23.87l-39.819,36.64c-0.181-0.05-0.38-0.01-0.54,0.12    l-1.051,0.94C461.756,370.089,458.726,367.089,455.876,363.939z M483.626,384.949l-0.55,1.21c-6.15-3.63-11.94-7.82-17.3-12.49    l0.979-0.86c0.18-0.16,0.23-0.4,0.16-0.61l38.9-35.8l-21.69,48.21C483.906,384.619,483.706,384.749,483.626,384.949z     M495.436,392.499c-3.909-1.71-7.71-3.63-11.38-5.75l0.601-1.35c0.08-0.2,0.05-0.41-0.08-0.57l22.189-49.31l19.28-17.73    l-2.84,26.01l-26.56,47.16c-0.181,0.02-0.36,0.11-0.471,0.28L495.436,392.499z M516.956,398.129l-0.15,1.36    c-7.029-1.56-13.83-3.75-20.33-6.53l0.681-1.17c0.12-0.2,0.1-0.45-0.03-0.62l25.93-46.08l-5.729,52.56    C517.126,397.729,516.966,397.909,516.956,398.129z M530.846,400.229l-0.319,1.44c-4.271-0.42-8.48-1.07-12.601-1.94l0.15-1.5    c0.02-0.21-0.08-0.4-0.25-0.51l5.88-53.76l12.84-22.82l5.33,25.63l-10.67,53.05C531.026,399.889,530.886,400.039,530.846,400.229z     M541.886,402.229c-3.45,0-6.859-0.16-10.229-0.46l0.3-1.32c0.04-0.23-0.06-0.46-0.24-0.58l10.431-51.83l10.789,51.76    c-0.17,0.13-0.26,0.35-0.21,0.57l0.28,1.32C549.346,402.039,545.646,402.229,541.886,402.229z M566.736,399.539    c-4.11,0.9-8.32,1.59-12.59,2.04l-0.32-1.47c-0.05-0.21-0.2-0.36-0.391-0.41l-11.039-52.93l5.17-25.67l12.989,22.71l6.25,53.76    c-0.149,0.12-0.239,0.3-0.22,0.5L566.736,399.539z M567.836,399.299l-0.13-1.36c-0.03-0.23-0.19-0.42-0.4-0.48l-6.1-52.52    l26.25,45.89c-0.11,0.18-0.13,0.42-0.01,0.61l0.68,1.16C581.636,395.429,574.876,397.689,567.836,399.299z M589.156,392.149    l-0.75-1.29c-0.11-0.19-0.29-0.28-0.5-0.28l-26.851-46.93l-3.01-26.01l19.37,17.59l22.55,49.2c-0.09,0.15-0.14,0.35-0.05,0.54    l0.58,1.32C596.836,388.439,593.056,390.399,589.156,392.149z M601.466,385.709l-0.52-1.21c-0.101-0.22-0.32-0.34-0.54-0.34    l-22.03-48.06l39.16,35.53c-0.07,0.21,0,0.44,0.17,0.59l0.96,0.86C613.336,377.799,607.586,382.029,601.466,385.709z     M619.516,372.329l-1.069-0.96c-0.16-0.15-0.38-0.18-0.57-0.11l-40.04-36.34l-10.91-23.8l23.87,10.74l36.66,39.82    c-0.06,0.18-0.03,0.38,0.1,0.53l0.94,1.06C625.666,366.449,622.676,369.479,619.516,372.329z M629.256,362.419l-0.87-0.97    c-0.16-0.18-0.399-0.23-0.6-0.16l-35.811-38.9l48.23,21.7c0,0.21,0.12,0.41,0.34,0.5l1.2,0.53    C638.116,351.279,633.926,357.069,629.256,362.419z M642.326,344.149l-1.351-0.6c-0.189-0.09-0.409-0.05-0.569,0.07l-49.311-22.19    l-17.72-19.26l26.01,2.84l47.16,26.54c0.01,0.19,0.101,0.37,0.28,0.47l1.26,0.74C646.376,336.669,644.456,340.469,642.326,344.149    z M648.546,331.729l-1.17-0.68c-0.21-0.13-0.45-0.1-0.63,0.03l-46.07-25.93l52.561,5.73c0.069,0.2,0.25,0.35,0.479,0.38l1.36,0.13    C653.516,318.429,651.316,325.229,648.546,331.729z M655.316,310.279l-1.5-0.15c-0.221-0.02-0.41,0.08-0.521,0.24l-53.75-5.86    l-22.82-12.85l25.62-5.34l53.061,10.68c0.06,0.17,0.22,0.32,0.41,0.36l1.439,0.31    C656.836,301.949,656.196,306.149,655.316,310.279z M656.046,296.259c-0.24-0.05-0.47,0.04-0.59,0.23l-51.83-10.43l51.75-10.79    c0.13,0.17,0.35,0.26,0.58,0.21l1.33-0.29c0.34,3.66,0.53,7.37,0.53,11.12c0,3.45-0.16,6.86-0.45,10.24L656.046,296.259z"/><circle cx="541.895" cy="286.312" r="7.385"/><path d="M320.891,303.22c-0.281-0.029-0.551-0.039-0.83-0.039c-2.721,0-5.17,1.159-6.871,3.01c-1.539,1.67-2.469,3.89-2.469,6.319    c0,0.49,0.039,0.97,0.109,1.431c0.689,4.479,4.561,7.899,9.23,7.899c5.15,0,9.33-4.17,9.33-9.33c0-1.85-0.541-3.579-1.48-5.04    C326.391,305.11,323.84,303.479,320.891,303.22z"/><path d="M309.916,269.769l5.27,10.6l16.091,2.88l96.319-113.37l-19.029-16.23L309.916,269.769z M388.866,208.819l-5.25,4.55    l-10.3,9.12l-12.69,11.27l9.46-14.09l6.57-9.83l-6.021-3.05l-0.029-0.01l4.52-5.18l0.021-0.02l11.439-13.1l5.7,4.87l-10.33,11.83    L388.866,208.819z"/></g></g><text x="0" y="441" fill="#000000" font-size="5px" font-weight="bold" font-family="'Helvetica Neue', Helvetica, Arial-Unicode, Arial, Sans-serif">Created by Felix Brönnimann</text><text x="0" y="446" fill="#000000" font-size="5px" font-weight="bold" font-family="'Helvetica Neue', Helvetica, Arial-Unicode, Arial, Sans-serif">from the Noun Project</text></svg>